{
  "asset": {
    "version": "2.0",
    "generator": "THREE.GLTFExporter"
  },
  "scenes": [
    {
      "nodes": [
        0
      ]
    }
  ],
  "scene": 0,
  "nodes": [
    {
      "children": [
        17
      ],
      "matrix": [
        0.01,
        0,
        0,
        0,
        0,
        0.01,
        0,
        0,
        0,
        0,
        0.01,
        0,
        0,
        0,
        0,
        1
      ]
    },
    {
      "matrix": [
        1,
        0,
        0,
        0,
        0,
        1,
        0,
        0,
        0,
        0,
        1,
        0,
        -892.92,
        658,
        589,
        1
      ],
      "name": "Point Light",
      "extensions": {
        "KHR_lights_punctual": {
          "light": 0
        }
      }
    },
    {
      "matrix": [
        1,
        0,
        0,
        0,
        0,
        1,
        0,
        0,
        0,
        0,
        1,
        0,
        0,
        -200,
        0,
        1
      ],
      "name": "bottom-right",
      "mesh": 0
    },
    {
      "matrix": [
        1,
        0,
        0,
        0,
        0,
        1,
        0,
        0,
        0,
        0,
        1,
        0,
        0,
        200,
        0,
        1
      ],
      "name": "top-right",
      "mesh": 1
    },
    {
      "matrix": [
        1,
        0,
        0,
        0,
        0,
        1,
        0,
        0,
        0,
        0,
        1,
        0,
        200,
        0,
        0,
        1
      ],
      "name": "Right",
      "children": [
        2,
        3
      ]
    },
    {
      "matrix": [
        1,
        0,
        0,
        0,
        0,
        1,
        0,
        0,
        0,
        0,
        1,
        0,
        0,
        -200,
        0,
        1
      ],
      "name": "bottom-left",
      "mesh": 2
    },
    {
      "matrix": [
        1,
        0,
        0,
        0,
        0,
        1,
        0,
        0,
        0,
        0,
        1,
        0,
        0,
        200,
        0,
        1
      ],
      "name": "top-left",
      "mesh": 3
    },
    {
      "matrix": [
        1,
        0,
        0,
        0,
        0,
        1,
        0,
        0,
        0,
        0,
        1,
        0,
        -200,
        0,
        0,
        1
      ],
      "name": "Left",
      "children": [
        5,
        6
      ]
    },
    {
      "matrix": [
        1,
        0,
        0,
        0,
        0,
        1,
        0,
        0,
        0,
        0,
        1,
        0,
        -400,
        0,
        0,
        1
      ],
      "name": "mid-left",
      "mesh": 4
    },
    {
      "name": "mid-mid",
      "mesh": 5
    },
    {
      "matrix": [
        1,
        0,
        0,
        0,
        0,
        1,
        0,
        0,
        0,
        0,
        1,
        0,
        400,
        0,
        0,
        1
      ],
      "name": "mid-right",
      "mesh": 6
    },
    {
      "name": "Mid",
      "children": [
        8,
        9,
        10
      ]
    },
    {
      "name": "Logo",
      "children": [
        4,
        7,
        11
      ]
    },
    {
      "name": "Scene",
      "children": [
        12
      ]
    },
    {
      "matrix": [
        1,
        0,
        0,
        0,
        0,
        1,
        -5.684341886080802e-17,
        0,
        0,
        5.684341886080802e-17,
        1,
        0,
        0,
        0,
        0,
        1
      ],
      "name": "Scene Camera",
      "camera": 0
    },
    {
      "matrix": [
        0.9998122797000091,
        -0.004432511860980501,
        -0.018861553479843363,
        0,
        0.004527922708207223,
        0.9999771545835751,
        0.005018787391931176,
        0,
        0.018838876745157218,
        -0.005103248919969819,
        0.9998095086432423,
        0,
        151.1410851158672,
        -55.33053796202624,
        495.5655696894604,
        1
      ],
      "name": "Personal Camera",
      "camera": 1
    },
    {
      "matrix": [
        1,
        0,
        0,
        0,
        0,
        1,
        0,
        0,
        0,
        0,
        1,
        0,
        0,
        1,
        0,
        1
      ],
      "name": "Default Ambient Light"
    },
    {
      "name": "Scene 1",
      "children": [
        1,
        13,
        14,
        15,
        16
      ]
    }
  ],
  "extensions": {
    "KHR_lights_punctual": {
      "lights": [
        {
          "name": "Point Light",
          "color": [
            0.8078431372549022,
            0.8524235294117649,
            1
          ],
          "intensity": 10,
          "type": "point",
          "range": 1500
        }
      ]
    }
  },
  "bufferViews": [
    {
      "buffer": 0,
      "byteOffset": 0,
      "byteLength": 3168,
      "target": 34962,
      "byteStride": 12
    },
    {
      "buffer": 0,
      "byteOffset": 3168,
      "byteLength": 3168,
      "target": 34962,
      "byteStride": 12
    },
    {
      "buffer": 0,
      "byteOffset": 6336,
      "byteLength": 2112,
      "target": 34962,
      "byteStride": 8
    },
    {
      "buffer": 0,
      "byteOffset": 8448,
      "byteLength": 1416,
      "target": 34963
    },
    {
      "buffer": 0,
      "byteOffset": 9864,
      "byteLength": 3168,
      "target": 34962,
      "byteStride": 12
    },
    {
      "buffer": 0,
      "byteOffset": 13032,
      "byteLength": 3168,
      "target": 34962,
      "byteStride": 12
    },
    {
      "buffer": 0,
      "byteOffset": 16200,
      "byteLength": 2112,
      "target": 34962,
      "byteStride": 8
    },
    {
      "buffer": 0,
      "byteOffset": 18312,
      "byteLength": 1416,
      "target": 34963
    },
    {
      "buffer": 0,
      "byteOffset": 19728,
      "byteLength": 3168,
      "target": 34962,
      "byteStride": 12
    },
    {
      "buffer": 0,
      "byteOffset": 22896,
      "byteLength": 3168,
      "target": 34962,
      "byteStride": 12
    },
    {
      "buffer": 0,
      "byteOffset": 26064,
      "byteLength": 2112,
      "target": 34962,
      "byteStride": 8
    },
    {
      "buffer": 0,
      "byteOffset": 28176,
      "byteLength": 1416,
      "target": 34963
    },
    {
      "buffer": 0,
      "byteOffset": 29592,
      "byteLength": 3168,
      "target": 34962,
      "byteStride": 12
    },
    {
      "buffer": 0,
      "byteOffset": 32760,
      "byteLength": 3168,
      "target": 34962,
      "byteStride": 12
    },
    {
      "buffer": 0,
      "byteOffset": 35928,
      "byteLength": 2112,
      "target": 34962,
      "byteStride": 8
    },
    {
      "buffer": 0,
      "byteOffset": 38040,
      "byteLength": 1416,
      "target": 34963
    },
    {
      "buffer": 0,
      "byteOffset": 39456,
      "byteLength": 3168,
      "target": 34962,
      "byteStride": 12
    },
    {
      "buffer": 0,
      "byteOffset": 42624,
      "byteLength": 3168,
      "target": 34962,
      "byteStride": 12
    },
    {
      "buffer": 0,
      "byteOffset": 45792,
      "byteLength": 2112,
      "target": 34962,
      "byteStride": 8
    },
    {
      "buffer": 0,
      "byteOffset": 47904,
      "byteLength": 1416,
      "target": 34963
    },
    {
      "buffer": 0,
      "byteOffset": 49320,
      "byteLength": 3168,
      "target": 34962,
      "byteStride": 12
    },
    {
      "buffer": 0,
      "byteOffset": 52488,
      "byteLength": 3168,
      "target": 34962,
      "byteStride": 12
    },
    {
      "buffer": 0,
      "byteOffset": 55656,
      "byteLength": 2112,
      "target": 34962,
      "byteStride": 8
    },
    {
      "buffer": 0,
      "byteOffset": 57768,
      "byteLength": 1416,
      "target": 34963
    },
    {
      "buffer": 0,
      "byteOffset": 59184,
      "byteLength": 3168,
      "target": 34962,
      "byteStride": 12
    },
    {
      "buffer": 0,
      "byteOffset": 62352,
      "byteLength": 3168,
      "target": 34962,
      "byteStride": 12
    },
    {
      "buffer": 0,
      "byteOffset": 65520,
      "byteLength": 2112,
      "target": 34962,
      "byteStride": 8
    },
    {
      "buffer": 0,
      "byteOffset": 67632,
      "byteLength": 1416,
      "target": 34963
    }
  ],
  "buffers": [
    {
      "byteLength": 69048,
      "uri": "data:application/octet-stream;base64,"
    }
  ],
  "accessors": [
    {
      "bufferView": 0,
      "componentType": 5126,
      "count": 264,
      "max": [
        100,
        100,
        100
      ],
      "min": [
        -100,
        -100,
        -100
      ],
      "type": "VEC3"
    },
    {
      "bufferView": 1,
      "componentType": 5126,
      "count": 264,
      "max": [
        1,
        1,
        1
      ],
      "min": [
        -1,
        -1,
        -1
      ],
      "type": "VEC3"
    },
    {
      "bufferView": 2,
      "componentType": 5126,
      "count": 264,
      "max": [
        1,
        1
      ],
      "min": [
        0,
        0
      ],
      "type": "VEC2"
    },
    {
      "bufferView": 3,
      "componentType": 5123,
      "count": 708,
      "max": [
        263
      ],
      "min": [
        0
      ],
      "type": "SCALAR"
    },
    {
      "bufferView": 4,
      "componentType": 5126,
      "count": 264,
      "max": [
        100,
        100,
        100
      ],
      "min": [
        -100,
        -100,
        -100
      ],
      "type": "VEC3"
    },
    {
      "bufferView": 5,
      "componentType": 5126,
      "count": 264,
      "max": [
        1,
        1,
        1
      ],
      "min": [
        -1,
        -1,
        -1
      ],
      "type": "VEC3"
    },
    {
      "bufferView": 6,
      "componentType": 5126,
      "count": 264,
      "max": [
        1,
        1
      ],
      "min": [
        0,
        0
      ],
      "type": "VEC2"
    },
    {
      "bufferView": 7,
      "componentType": 5123,
      "count": 708,
      "max": [
        263
      ],
      "min": [
        0
      ],
      "type": "SCALAR"
    },
    {
      "bufferView": 8,
      "componentType": 5126,
      "count": 264,
      "max": [
        100,
        100,
        100
      ],
      "min": [
        -100,
        -100,
        -100
      ],
      "type": "VEC3"
    },
    {
      "bufferView": 9,
      "componentType": 5126,
      "count": 264,
      "max": [
        1,
        1,
        1
      ],
      "min": [
        -1,
        -1,
        -1
      ],
      "type": "VEC3"
    },
    {
      "bufferView": 10,
      "componentType": 5126,
      "count": 264,
      "max": [
        1,
        1
      ],
      "min": [
        0,
        0
      ],
      "type": "VEC2"
    },
    {
      "bufferView": 11,
      "componentType": 5123,
      "count": 708,
      "max": [
        263
      ],
      "min": [
        0
      ],
      "type": "SCALAR"
    },
    {
      "bufferView": 12,
      "componentType": 5126,
      "count": 264,
      "max": [
        100,
        100,
        100
      ],
      "min": [
        -100,
        -100,
        -100
      ],
      "type": "VEC3"
    },
    {
      "bufferView": 13,
      "componentType": 5126,
      "count": 264,
      "max": [
        1,
        1,
        1
      ],
      "min": [
        -1,
        -1,
        -1
      ],
      "type": "VEC3"
    },
    {
      "bufferView": 14,
      "componentType": 5126,
      "count": 264,
      "max": [
        1,
        1
      ],
      "min": [
        0,
        0
      ],
      "type": "VEC2"
    },
    {
      "bufferView": 15,
      "componentType": 5123,
      "count": 708,
      "max": [
        263
      ],
      "min": [
        0
      ],
      "type": "SCALAR"
    },
    {
      "bufferView": 16,
      "componentType": 5126,
      "count": 264,
      "max": [
        100,
        100,
        100
      ],
      "min": [
        -100,
        -100,
        -100
      ],
      "type": "VEC3"
    },
    {
      "bufferView": 17,
      "componentType": 5126,
      "count": 264,
      "max": [
        1,
        1,
        1
      ],
      "min": [
        -1,
        -1,
        -1
      ],
      "type": "VEC3"
    },
    {
      "bufferView": 18,
      "componentType": 5126,
      "count": 264,
      "max": [
        1,
        1
      ],
      "min": [
        0,
        0
      ],
      "type": "VEC2"
    },
    {
      "bufferView": 19,
      "componentType": 5123,
      "count": 708,
      "max": [
        263
      ],
      "min": [
        0
      ],
      "type": "SCALAR"
    },
    {
      "bufferView": 20,
      "componentType": 5126,
      "count": 264,
      "max": [
        100,
        100,
        100
      ],
      "min": [
        -100,
        -100,
        -100
      ],
      "type": "VEC3"
    },
    {
      "bufferView": 21,
      "componentType": 5126,
      "count": 264,
      "max": [
        1,
        1,
        1
      ],
      "min": [
        -1,
        -1,
        -1
      ],
      "type": "VEC3"
    },
    {
      "bufferView": 22,
      "componentType": 5126,
      "count": 264,
      "max": [
        1,
        1
      ],
      "min": [
        0,
        0
      ],
      "type": "VEC2"
    },
    {
      "bufferView": 23,
      "componentType": 5123,
      "count": 708,
      "max": [
        263
      ],
      "min": [
        0
      ],
      "type": "SCALAR"
    },
    {
      "bufferView": 24,
      "componentType": 5126,
      "count": 264,
      "max": [
        100,
        100,
        100
      ],
      "min": [
        -100,
        -100,
        -100
      ],
      "type": "VEC3"
    },
    {
      "bufferView": 25,
      "componentType": 5126,
      "count": 264,
      "max": [
        1,
        1,
        1
      ],
      "min": [
        -1,
        -1,
        -1
      ],
      "type": "VEC3"
    },
    {
      "bufferView": 26,
      "componentType": 5126,
      "count": 264,
      "max": [
        1,
        1
      ],
      "min": [
        0,
        0
      ],
      "type": "VEC2"
    },
    {
      "bufferView": 27,
      "componentType": 5123,
      "count": 708,
      "max": [
        263
      ],
      "min": [
        0
      ],
      "type": "SCALAR"
    }
  ],
  "meshes": [
    {
      "primitives": [
        {
          "mode": 4,
          "attributes": {
            "POSITION": 0,
            "NORMAL": 1,
            "TEXCOORD_0": 2
          },
          "extras": {
            "parameters": {
              "width": 200,
              "widthSegments": 1,
              "heightSegments": 1,
              "depthSegments": 1,
              "cornerRadius": 20,
              "cornerSegments": 4,
              "depth": 200,
              "height": 200,
              "type": "CubeGeometry"
            },
            "type": "CubeGeometry"
          },
          "indices": 3
        }
      ]
    },
    {
      "primitives": [
        {
          "mode": 4,
          "attributes": {
            "POSITION": 4,
            "NORMAL": 5,
            "TEXCOORD_0": 6
          },
          "extras": {
            "parameters": {
              "width": 200,
              "widthSegments": 1,
              "heightSegments": 1,
              "depthSegments": 1,
              "cornerRadius": 20,
              "cornerSegments": 4,
              "depth": 200,
              "height": 200,
              "type": "CubeGeometry"
            },
            "type": "CubeGeometry"
          },
          "indices": 7
        }
      ]
    },
    {
      "primitives": [
        {
          "mode": 4,
          "attributes": {
            "POSITION": 8,
            "NORMAL": 9,
            "TEXCOORD_0": 10
          },
          "extras": {
            "parameters": {
              "width": 200,
              "widthSegments": 1,
              "heightSegments": 1,
              "depthSegments": 1,
              "cornerRadius": 20,
              "cornerSegments": 4,
              "depth": 200,
              "height": 200,
              "type": "CubeGeometry"
            },
            "type": "CubeGeometry"
          },
          "indices": 11
        }
      ]
    },
    {
      "primitives": [
        {
          "mode": 4,
          "attributes": {
            "POSITION": 12,
            "NORMAL": 13,
            "TEXCOORD_0": 14
          },
          "extras": {
            "parameters": {
              "width": 200,
              "widthSegments": 1,
              "heightSegments": 1,
              "depthSegments": 1,
              "cornerRadius": 20,
              "cornerSegments": 4,
              "depth": 200,
              "height": 200,
              "type": "CubeGeometry"
            },
            "type": "CubeGeometry"
          },
          "indices": 15
        }
      ]
    },
    {
      "primitives": [
        {
          "mode": 4,
          "attributes": {
            "POSITION": 16,
            "NORMAL": 17,
            "TEXCOORD_0": 18
          },
          "extras": {
            "parameters": {
              "width": 200,
              "widthSegments": 1,
              "heightSegments": 1,
              "depthSegments": 1,
              "cornerRadius": 20,
              "cornerSegments": 4,
              "depth": 200,
              "height": 200,
              "type": "CubeGeometry"
            },
            "type": "CubeGeometry"
          },
          "indices": 19
        }
      ]
    },
    {
      "primitives": [
        {
          "mode": 4,
          "attributes": {
            "POSITION": 20,
            "NORMAL": 21,
            "TEXCOORD_0": 22
          },
          "extras": {
            "parameters": {
              "width": 200,
              "widthSegments": 1,
              "heightSegments": 1,
              "depthSegments": 1,
              "cornerRadius": 20,
              "cornerSegments": 4,
              "depth": 200,
              "height": 200,
              "type": "CubeGeometry"
            },
            "type": "CubeGeometry"
          },
          "indices": 23
        }
      ]
    },
    {
      "primitives": [
        {
          "mode": 4,
          "attributes": {
            "POSITION": 24,
            "NORMAL": 25,
            "TEXCOORD_0": 26
          },
          "extras": {
            "parameters": {
              "width": 200,
              "widthSegments": 1,
              "heightSegments": 1,
              "depthSegments": 1,
              "cornerRadius": 20,
              "cornerSegments": 4,
              "depth": 200,
              "height": 200,
              "type": "CubeGeometry"
            },
            "type": "CubeGeometry"
          },
          "indices": 27
        }
      ]
    }
  ],
  "cameras": [
    {
      "type": "orthographic",
      "orthographic": {
        "xmag": 16.000000000000004,
        "ymag": 8.392857142857144,
        "zfar": 100000,
        "znear": 0
      },
      "name": "Camera"
    },
    {
      "type": "orthographic",
      "orthographic": {
        "xmag": 20.726919429683154,
        "ymag": 10.872379611552546,
        "zfar": 100000,
        "znear": 0
      },
      "name": "Camera"
    }
  ],
  "extensionsUsed": [
    "KHR_lights_punctual"
  ]
}